<?xml version="1.0" encoding="UTF-8"?><svg xmlns="http://www.w3.org/2000/svg" xmlns:xlink="http://www.w3.org/1999/xlink" width="1230pt" zoomAndPan="magnify" viewBox="0 0 1230 693.000001" height="693.000001pt" preserveAspectRatio="xMidYMid meet" version="1.2"><defs><clipPath xml:id="clip1" id="clip1"><path d="M 0.886719 0 L 1229.113281 0 L 1229.113281 692 L 0.886719 692 Z M 0.886719 0 "/></clipPath><clipPath xml:id="clip2" id="clip2"><path d="M 615 0 L 990.070312 0 L 990.070312 182.84375 L 615 182.84375 Z M 615 0 "/></clipPath></defs><g xml:id="surface1" id="surface1"><g clip-rule="nonzero" clip-path="url(#clip1)"><path style=" stroke:none;fill-rule:nonzero;fill:rgb(100%,100%,100%);fill-opacity:1;" d="M 0.886719 0 L 1229.113281 0 L 1229.113281 699.492188 L 0.886719 699.492188 Z M 0.886719 0 "/><path style=" stroke:none;fill-rule:nonzero;fill:rgb(100%,100%,100%);fill-opacity:1;" d="M 0.886719 0 L 1229.113281 0 L 1229.113281 692 L 0.886719 692 Z M 0.886719 0 "/><path style=" stroke:none;fill-rule:nonzero;fill:rgb(96.469116%,96.469116%,96.469116%);fill-opacity:1;" d="M 0.886719 0 L 1229.113281 0 L 1229.113281 692 L 0.886719 692 Z M 0.886719 0 "/></g><g clip-rule="nonzero" clip-path="url(#clip2)"><path style=" stroke:none;fill-rule:nonzero;fill:rgb(90.19928%,90.19928%,90.19928%);fill-opacity:1;" d="M 876.007812 168.242188 C 898.332031 158.878906 918.40625 145.398438 935.664062 128.171875 C 952.925781 110.949219 966.433594 90.914062 975.8125 68.632812 C 985.566406 45.417969 990.445312 20.890625 990.445312 -4.386719 L 934.726562 -4.386719 C 934.726562 30.8125 921.03125 63.953125 896.082031 88.667969 C 871.316406 113.570312 838.109375 127.238281 802.839844 127.238281 C 767.570312 127.238281 734.367188 113.570312 709.601562 88.667969 C 684.652344 63.953125 670.957031 30.8125 670.957031 -4.386719 L 615.238281 -4.386719 C 615.238281 20.890625 620.113281 45.417969 630.058594 68.449219 C 639.4375 90.726562 652.945312 110.761719 670.207031 127.988281 C 687.464844 145.210938 707.539062 158.691406 729.863281 168.054688 C 752.9375 177.789062 777.515625 182.84375 802.839844 182.84375 C 828.167969 182.84375 852.742188 177.976562 876.007812 168.242188 Z M 876.007812 168.242188 "/></g><path style=" stroke:none;fill-rule:nonzero;fill:rgb(90.19928%,90.19928%,90.19928%);fill-opacity:1;" d="M 262.785156 462.160156 L 264.304688 462.160156 L 264.304688 457.214844 L 269.25 457.1875 L 269.25 455.667969 L 264.304688 455.667969 L 264.304688 450.726562 L 262.785156 450.726562 L 262.785156 455.667969 L 257.839844 455.667969 L 257.839844 457.1875 L 262.785156 457.1875 Z M 238.449219 462.160156 L 239.96875 462.160156 L 239.96875 457.214844 L 244.914062 457.214844 L 244.914062 455.695312 L 239.96875 455.695312 L 239.96875 450.753906 L 238.449219 450.753906 L 238.449219 455.695312 L 233.503906 455.695312 L 233.503906 457.214844 L 238.449219 457.214844 Z M 214.136719 462.160156 L 215.65625 462.160156 L 215.65625 457.214844 L 220.601562 457.214844 L 220.601562 455.695312 L 215.65625 455.695312 L 215.65625 450.753906 L 214.136719 450.753906 L 214.136719 455.695312 L 209.191406 455.695312 L 209.191406 457.214844 L 214.136719 457.214844 Z M 189.824219 457.1875 L 189.824219 462.132812 L 191.34375 462.132812 L 191.34375 457.1875 L 196.289062 457.1875 L 196.289062 455.667969 L 191.34375 455.667969 L 191.34375 450.726562 L 189.824219 450.726562 L 189.824219 455.667969 L 184.882812 455.667969 L 184.882812 457.1875 Z M 262.785156 439.320312 L 264.304688 439.320312 L 264.304688 434.375 L 269.25 434.375 L 269.25 432.855469 L 264.304688 432.855469 L 264.304688 427.914062 L 262.785156 427.914062 L 262.785156 432.855469 L 257.839844 432.855469 L 257.839844 434.375 L 262.785156 434.375 Z M 238.449219 439.320312 L 239.96875 439.320312 L 239.96875 434.375 L 244.914062 434.375 L 244.914062 432.855469 L 239.96875 432.855469 L 239.96875 427.914062 L 238.449219 427.914062 L 238.449219 432.855469 L 233.503906 432.855469 L 233.503906 434.375 L 238.449219 434.375 Z M 214.136719 439.320312 L 215.65625 439.320312 L 215.65625 434.375 L 220.601562 434.375 L 220.601562 432.855469 L 215.65625 432.855469 L 215.65625 427.914062 L 214.136719 427.914062 L 214.136719 432.855469 L 209.191406 432.855469 L 209.191406 434.375 L 214.136719 434.375 Z M 189.824219 439.347656 L 191.34375 439.347656 L 191.34375 434.402344 L 196.289062 434.402344 L 196.289062 432.882812 L 191.34375 432.882812 L 191.34375 427.941406 L 189.824219 427.941406 L 189.824219 432.882812 L 184.882812 432.882812 L 184.882812 434.402344 L 189.824219 434.402344 Z M 262.785156 416.480469 L 264.304688 416.480469 L 264.304688 411.535156 L 269.25 411.535156 L 269.25 410.015625 L 264.304688 410.015625 L 264.304688 405.074219 L 262.785156 405.074219 L 262.785156 410.015625 L 257.839844 410.015625 L 257.839844 411.535156 L 262.785156 411.535156 Z M 238.449219 416.480469 L 239.96875 416.480469 L 239.96875 411.535156 L 244.914062 411.535156 L 244.914062 410.015625 L 239.96875 410.015625 L 239.96875 405.074219 L 238.449219 405.074219 L 238.449219 410.015625 L 233.503906 410.015625 L 233.503906 411.535156 L 238.449219 411.535156 Z M 214.136719 416.480469 L 215.65625 416.480469 L 215.65625 411.535156 L 220.601562 411.535156 L 220.601562 410.015625 L 215.65625 410.015625 L 215.65625 405.074219 L 214.136719 405.074219 L 214.136719 410.015625 L 209.191406 410.015625 L 209.191406 411.535156 L 214.136719 411.535156 Z M 189.824219 416.480469 L 191.34375 416.480469 L 191.34375 411.535156 L 196.289062 411.535156 L 196.289062 410.015625 L 191.34375 410.015625 L 191.34375 405.074219 L 189.824219 405.074219 L 189.824219 410.015625 L 184.882812 410.015625 L 184.882812 411.535156 L 189.824219 411.535156 Z M 262.785156 393.640625 L 264.304688 393.640625 L 264.304688 388.695312 L 269.25 388.695312 L 269.25 387.175781 L 264.304688 387.175781 L 264.304688 382.234375 L 262.785156 382.234375 L 262.785156 387.175781 L 257.839844 387.175781 L 257.839844 388.695312 L 262.785156 388.695312 Z M 238.449219 393.640625 L 239.96875 393.640625 L 239.96875 388.695312 L 244.914062 388.695312 L 244.914062 387.175781 L 239.96875 387.175781 L 239.96875 382.234375 L 238.449219 382.234375 L 238.449219 387.175781 L 233.503906 387.175781 L 233.503906 388.695312 L 238.449219 388.695312 Z M 214.136719 393.667969 L 215.65625 393.667969 L 215.65625 388.722656 L 220.601562 388.722656 L 220.601562 387.203125 L 215.65625 387.203125 L 215.65625 382.261719 L 214.136719 382.261719 L 214.136719 387.203125 L 209.191406 387.203125 L 209.191406 388.722656 L 214.136719 388.722656 Z M 189.824219 393.667969 L 191.34375 393.667969 L 191.34375 388.722656 L 196.289062 388.722656 L 196.289062 387.203125 L 191.34375 387.203125 L 191.34375 382.261719 L 189.824219 382.261719 L 189.824219 387.203125 L 184.882812 387.203125 L 184.882812 388.722656 L 189.824219 388.722656 Z M 189.824219 393.667969 "/><path style=" stroke:none;fill-rule:nonzero;fill:rgb(0%,56.469727%,97.24884%);fill-opacity:1;" d="M 350.667969 545.566406 L 352.1875 545.566406 L 352.1875 540.625 L 357.132812 540.597656 L 357.132812 539.078125 L 352.1875 539.078125 L 352.1875 534.132812 L 350.667969 534.132812 L 350.667969 539.078125 L 345.722656 539.078125 L 345.722656 540.597656 L 350.667969 540.597656 Z M 326.332031 545.566406 L 327.851562 545.566406 L 327.851562 540.625 L 332.792969 540.625 L 332.792969 539.105469 L 327.851562 539.105469 L 327.851562 534.160156 L 326.332031 534.160156 L 326.332031 539.105469 L 321.386719 539.105469 L 321.386719 540.625 L 326.332031 540.625 Z M 302.019531 545.566406 L 303.539062 545.566406 L 303.539062 540.625 L 308.484375 540.625 L 308.484375 539.105469 L 303.539062 539.105469 L 303.539062 534.160156 L 302.019531 534.160156 L 302.019531 539.105469 L 297.074219 539.105469 L 297.074219 540.625 L 302.019531 540.625 Z M 277.707031 540.597656 L 277.707031 545.539062 L 279.226562 545.539062 L 279.226562 540.597656 L 284.171875 540.597656 L 284.171875 539.078125 L 279.226562 539.078125 L 279.226562 534.132812 L 277.707031 534.132812 L 277.707031 539.078125 L 272.761719 539.078125 L 272.761719 540.597656 Z M 350.667969 522.726562 L 352.1875 522.726562 L 352.1875 517.785156 L 357.132812 517.785156 L 357.132812 516.265625 L 352.1875 516.265625 L 352.1875 511.320312 L 350.667969 511.320312 L 350.667969 516.265625 L 345.722656 516.265625 L 345.722656 517.785156 L 350.667969 517.785156 Z M 326.332031 522.726562 L 327.851562 522.726562 L 327.851562 517.785156 L 332.792969 517.785156 L 332.792969 516.265625 L 327.851562 516.265625 L 327.851562 511.320312 L 326.332031 511.320312 L 326.332031 516.265625 L 321.386719 516.265625 L 321.386719 517.785156 L 326.332031 517.785156 Z M 302.019531 522.726562 L 303.539062 522.726562 L 303.539062 517.785156 L 308.484375 517.785156 L 308.484375 516.265625 L 303.539062 516.265625 L 303.539062 511.320312 L 302.019531 511.320312 L 302.019531 516.265625 L 297.074219 516.265625 L 297.074219 517.785156 L 302.019531 517.785156 Z M 277.707031 522.753906 L 279.226562 522.753906 L 279.226562 517.8125 L 284.171875 517.8125 L 284.171875 516.292969 L 279.226562 516.292969 L 279.226562 511.347656 L 277.707031 511.347656 L 277.707031 516.292969 L 272.761719 516.292969 L 272.761719 517.8125 L 277.707031 517.8125 Z M 350.667969 499.886719 L 352.1875 499.886719 L 352.1875 494.945312 L 357.132812 494.945312 L 357.132812 493.425781 L 352.1875 493.425781 L 352.1875 488.480469 L 350.667969 488.480469 L 350.667969 493.425781 L 345.722656 493.425781 L 345.722656 494.945312 L 350.667969 494.945312 Z M 326.332031 499.886719 L 327.851562 499.886719 L 327.851562 494.945312 L 332.792969 494.945312 L 332.792969 493.425781 L 327.851562 493.425781 L 327.851562 488.480469 L 326.332031 488.480469 L 326.332031 493.425781 L 321.386719 493.425781 L 321.386719 494.945312 L 326.332031 494.945312 Z M 302.019531 499.886719 L 303.539062 499.886719 L 303.539062 494.945312 L 308.484375 494.945312 L 308.484375 493.425781 L 303.539062 493.425781 L 303.539062 488.480469 L 302.019531 488.480469 L 302.019531 493.425781 L 297.074219 493.425781 L 297.074219 494.945312 L 302.019531 494.945312 Z M 277.707031 499.886719 L 279.226562 499.886719 L 279.226562 494.945312 L 284.171875 494.945312 L 284.171875 493.425781 L 279.226562 493.425781 L 279.226562 488.480469 L 277.707031 488.480469 L 277.707031 493.425781 L 272.761719 493.425781 L 272.761719 494.945312 L 277.707031 494.945312 Z M 350.667969 477.046875 L 352.1875 477.046875 L 352.1875 472.105469 L 357.132812 472.105469 L 357.132812 470.585938 L 352.1875 470.585938 L 352.1875 465.640625 L 350.667969 465.640625 L 350.667969 470.585938 L 345.722656 470.585938 L 345.722656 472.105469 L 350.667969 472.105469 Z M 326.332031 477.046875 L 327.851562 477.046875 L 327.851562 472.105469 L 332.792969 472.105469 L 332.792969 470.585938 L 327.851562 470.585938 L 327.851562 465.640625 L 326.332031 465.640625 L 326.332031 470.585938 L 321.386719 470.585938 L 321.386719 472.105469 L 326.332031 472.105469 Z M 302.019531 477.074219 L 303.539062 477.074219 L 303.539062 472.132812 L 308.484375 472.132812 L 308.484375 470.613281 L 303.539062 470.613281 L 303.539062 465.667969 L 302.019531 465.667969 L 302.019531 470.613281 L 297.074219 470.613281 L 297.074219 472.132812 L 302.019531 472.132812 Z M 277.707031 477.074219 L 279.226562 477.074219 L 279.226562 472.132812 L 284.171875 472.132812 L 284.171875 470.613281 L 279.226562 470.613281 L 279.226562 465.667969 L 277.707031 465.667969 L 277.707031 470.613281 L 272.761719 470.613281 L 272.761719 472.132812 L 277.707031 472.132812 Z M 277.707031 477.074219 "/><path style=" stroke:none;fill-rule:nonzero;fill:rgb(0%,56.469727%,97.24884%);fill-opacity:1;" d="M 1173.957031 354.195312 L 1175.476562 354.195312 L 1175.476562 349.25 L 1180.421875 349.222656 L 1180.421875 347.703125 L 1175.476562 347.703125 L 1175.476562 342.761719 L 1173.957031 342.761719 L 1173.957031 347.703125 L 1169.011719 347.703125 L 1169.011719 349.222656 L 1173.957031 349.222656 Z M 1149.617188 354.195312 L 1151.136719 354.195312 L 1151.136719 349.25 L 1156.082031 349.25 L 1156.082031 347.730469 L 1151.136719 347.730469 L 1151.136719 342.789062 L 1149.617188 342.789062 L 1149.617188 347.730469 L 1144.671875 347.730469 L 1144.671875 349.25 L 1149.617188 349.25 Z M 1125.308594 354.195312 L 1126.828125 354.195312 L 1126.828125 349.25 L 1131.773438 349.25 L 1131.773438 347.730469 L 1126.828125 347.730469 L 1126.828125 342.789062 L 1125.308594 342.789062 L 1125.308594 347.730469 L 1120.363281 347.730469 L 1120.363281 349.25 L 1125.308594 349.25 Z M 1100.996094 349.222656 L 1100.996094 354.167969 L 1102.515625 354.167969 L 1102.515625 349.222656 L 1107.460938 349.222656 L 1107.460938 347.703125 L 1102.515625 347.703125 L 1102.515625 342.761719 L 1100.996094 342.761719 L 1100.996094 347.703125 L 1096.050781 347.703125 L 1096.050781 349.222656 Z M 1173.957031 331.355469 L 1175.476562 331.355469 L 1175.476562 326.410156 L 1180.421875 326.410156 L 1180.421875 324.890625 L 1175.476562 324.890625 L 1175.476562 319.949219 L 1173.957031 319.949219 L 1173.957031 324.890625 L 1169.011719 324.890625 L 1169.011719 326.410156 L 1173.957031 326.410156 Z M 1149.617188 331.355469 L 1151.136719 331.355469 L 1151.136719 326.410156 L 1156.082031 326.410156 L 1156.082031 324.890625 L 1151.136719 324.890625 L 1151.136719 319.949219 L 1149.617188 319.949219 L 1149.617188 324.890625 L 1144.671875 324.890625 L 1144.671875 326.410156 L 1149.617188 326.410156 Z M 1125.308594 331.355469 L 1126.828125 331.355469 L 1126.828125 326.410156 L 1131.773438 326.410156 L 1131.773438 324.890625 L 1126.828125 324.890625 L 1126.828125 319.949219 L 1125.308594 319.949219 L 1125.308594 324.890625 L 1120.363281 324.890625 L 1120.363281 326.410156 L 1125.308594 326.410156 Z M 1100.996094 331.382812 L 1102.515625 331.382812 L 1102.515625 326.4375 L 1107.460938 326.4375 L 1107.460938 324.917969 L 1102.515625 324.917969 L 1102.515625 319.976562 L 1100.996094 319.976562 L 1100.996094 324.917969 L 1096.050781 324.917969 L 1096.050781 326.4375 L 1100.996094 326.4375 Z M 1173.957031 308.515625 L 1175.476562 308.515625 L 1175.476562 303.570312 L 1180.421875 303.570312 L 1180.421875 302.050781 L 1175.476562 302.050781 L 1175.476562 297.109375 L 1173.957031 297.109375 L 1173.957031 302.050781 L 1169.011719 302.050781 L 1169.011719 303.570312 L 1173.957031 303.570312 Z M 1149.617188 308.515625 L 1151.136719 308.515625 L 1151.136719 303.570312 L 1156.082031 303.570312 L 1156.082031 302.050781 L 1151.136719 302.050781 L 1151.136719 297.109375 L 1149.617188 297.109375 L 1149.617188 302.050781 L 1144.671875 302.050781 L 1144.671875 303.570312 L 1149.617188 303.570312 Z M 1125.308594 308.515625 L 1126.828125 308.515625 L 1126.828125 303.570312 L 1131.773438 303.570312 L 1131.773438 302.050781 L 1126.828125 302.050781 L 1126.828125 297.109375 L 1125.308594 297.109375 L 1125.308594 302.050781 L 1120.363281 302.050781 L 1120.363281 303.570312 L 1125.308594 303.570312 Z M 1100.996094 308.515625 L 1102.515625 308.515625 L 1102.515625 303.570312 L 1107.460938 303.570312 L 1107.460938 302.050781 L 1102.515625 302.050781 L 1102.515625 297.109375 L 1100.996094 297.109375 L 1100.996094 302.050781 L 1096.050781 302.050781 L 1096.050781 303.570312 L 1100.996094 303.570312 Z M 1173.957031 285.671875 L 1175.476562 285.671875 L 1175.476562 280.730469 L 1180.421875 280.730469 L 1180.421875 279.210938 L 1175.476562 279.210938 L 1175.476562 274.265625 L 1173.957031 274.265625 L 1173.957031 279.210938 L 1169.011719 279.210938 L 1169.011719 280.730469 L 1173.957031 280.730469 Z M 1149.617188 285.671875 L 1151.136719 285.671875 L 1151.136719 280.730469 L 1156.082031 280.730469 L 1156.082031 279.210938 L 1151.136719 279.210938 L 1151.136719 274.265625 L 1149.617188 274.265625 L 1149.617188 279.210938 L 1144.671875 279.210938 L 1144.671875 280.730469 L 1149.617188 280.730469 Z M 1125.308594 285.703125 L 1126.828125 285.703125 L 1126.828125 280.757812 L 1131.773438 280.757812 L 1131.773438 279.238281 L 1126.828125 279.238281 L 1126.828125 274.296875 L 1125.308594 274.296875 L 1125.308594 279.238281 L 1120.363281 279.238281 L 1120.363281 280.757812 L 1125.308594 280.757812 Z M 1100.996094 285.703125 L 1102.515625 285.703125 L 1102.515625 280.757812 L 1107.460938 280.757812 L 1107.460938 279.238281 L 1102.515625 279.238281 L 1102.515625 274.296875 L 1100.996094 274.296875 L 1100.996094 279.238281 L 1096.050781 279.238281 L 1096.050781 280.757812 L 1100.996094 280.757812 Z M 1100.996094 285.703125 "/><path style=" stroke:none;fill-rule:nonzero;fill:rgb(0%,56.469727%,97.24884%);fill-opacity:1;" d="M 984.472656 537.519531 L 984.472656 532.726562 L 1014.988281 532.726562 L 1014.988281 537.519531 Z M 984.472656 537.519531 "/><path style=" stroke:none;fill-rule:nonzero;fill:rgb(0%,56.469727%,97.24884%);fill-opacity:1;" d="M 923.417969 537.519531 L 923.417969 532.726562 L 953.933594 532.726562 L 953.933594 537.519531 Z M 923.417969 537.519531 "/><path style=" stroke:none;fill-rule:nonzero;fill:rgb(0%,56.469727%,97.24884%);fill-opacity:1;" d="M 862.359375 537.519531 L 862.359375 532.726562 L 892.875 532.726562 L 892.875 537.519531 Z M 862.359375 537.519531 "/><path style=" stroke:none;fill-rule:nonzero;fill:rgb(90.19928%,90.19928%,90.19928%);fill-opacity:1;" d="M 350.667969 265.476562 L 352.1875 265.476562 L 352.1875 260.535156 L 357.132812 260.507812 L 357.132812 258.988281 L 352.1875 258.988281 L 352.1875 254.042969 L 350.667969 254.042969 L 350.667969 258.988281 L 345.722656 258.988281 L 345.722656 260.507812 L 350.667969 260.507812 Z M 326.332031 265.476562 L 327.851562 265.476562 L 327.851562 260.535156 L 332.792969 260.535156 L 332.792969 259.015625 L 327.851562 259.015625 L 327.851562 254.070312 L 326.332031 254.070312 L 326.332031 259.015625 L 321.386719 259.015625 L 321.386719 260.535156 L 326.332031 260.535156 Z M 302.019531 265.476562 L 303.539062 265.476562 L 303.539062 260.535156 L 308.484375 260.535156 L 308.484375 259.015625 L 303.539062 259.015625 L 303.539062 254.070312 L 302.019531 254.070312 L 302.019531 259.015625 L 297.074219 259.015625 L 297.074219 260.535156 L 302.019531 260.535156 Z M 277.707031 260.507812 L 277.707031 265.449219 L 279.226562 265.449219 L 279.226562 260.507812 L 284.171875 260.507812 L 284.171875 258.988281 L 279.226562 258.988281 L 279.226562 254.042969 L 277.707031 254.042969 L 277.707031 258.988281 L 272.761719 258.988281 L 272.761719 260.507812 Z M 350.667969 242.636719 L 352.1875 242.636719 L 352.1875 237.695312 L 357.132812 237.695312 L 357.132812 236.175781 L 352.1875 236.175781 L 352.1875 231.230469 L 350.667969 231.230469 L 350.667969 236.175781 L 345.722656 236.175781 L 345.722656 237.695312 L 350.667969 237.695312 Z M 326.332031 242.636719 L 327.851562 242.636719 L 327.851562 237.695312 L 332.792969 237.695312 L 332.792969 236.175781 L 327.851562 236.175781 L 327.851562 231.230469 L 326.332031 231.230469 L 326.332031 236.175781 L 321.386719 236.175781 L 321.386719 237.695312 L 326.332031 237.695312 Z M 302.019531 242.636719 L 303.539062 242.636719 L 303.539062 237.695312 L 308.484375 237.695312 L 308.484375 236.175781 L 303.539062 236.175781 L 303.539062 231.230469 L 302.019531 231.230469 L 302.019531 236.175781 L 297.074219 236.175781 L 297.074219 237.695312 L 302.019531 237.695312 Z M 277.707031 242.664062 L 279.226562 242.664062 L 279.226562 237.722656 L 284.171875 237.722656 L 284.171875 236.203125 L 279.226562 236.203125 L 279.226562 231.257812 L 277.707031 231.257812 L 277.707031 236.203125 L 272.761719 236.203125 L 272.761719 237.722656 L 277.707031 237.722656 Z M 350.667969 219.796875 L 352.1875 219.796875 L 352.1875 214.855469 L 357.132812 214.855469 L 357.132812 213.335938 L 352.1875 213.335938 L 352.1875 208.390625 L 350.667969 208.390625 L 350.667969 213.335938 L 345.722656 213.335938 L 345.722656 214.855469 L 350.667969 214.855469 Z M 326.332031 219.796875 L 327.851562 219.796875 L 327.851562 214.855469 L 332.792969 214.855469 L 332.792969 213.335938 L 327.851562 213.335938 L 327.851562 208.390625 L 326.332031 208.390625 L 326.332031 213.335938 L 321.386719 213.335938 L 321.386719 214.855469 L 326.332031 214.855469 Z M 302.019531 219.796875 L 303.539062 219.796875 L 303.539062 214.855469 L 308.484375 214.855469 L 308.484375 213.335938 L 303.539062 213.335938 L 303.539062 208.390625 L 302.019531 208.390625 L 302.019531 213.335938 L 297.074219 213.335938 L 297.074219 214.855469 L 302.019531 214.855469 Z M 277.707031 219.796875 L 279.226562 219.796875 L 279.226562 214.855469 L 284.171875 214.855469 L 284.171875 213.335938 L 279.226562 213.335938 L 279.226562 208.390625 L 277.707031 208.390625 L 277.707031 213.335938 L 272.761719 213.335938 L 272.761719 214.855469 L 277.707031 214.855469 Z M 350.667969 196.957031 L 352.1875 196.957031 L 352.1875 192.015625 L 357.132812 192.015625 L 357.132812 190.496094 L 352.1875 190.496094 L 352.1875 185.550781 L 350.667969 185.550781 L 350.667969 190.496094 L 345.722656 190.496094 L 345.722656 192.015625 L 350.667969 192.015625 Z M 326.332031 196.957031 L 327.851562 196.957031 L 327.851562 192.015625 L 332.792969 192.015625 L 332.792969 190.496094 L 327.851562 190.496094 L 327.851562 185.550781 L 326.332031 185.550781 L 326.332031 190.496094 L 321.386719 190.496094 L 321.386719 192.015625 L 326.332031 192.015625 Z M 302.019531 196.984375 L 303.539062 196.984375 L 303.539062 192.042969 L 308.484375 192.042969 L 308.484375 190.523438 L 303.539062 190.523438 L 303.539062 185.578125 L 302.019531 185.578125 L 302.019531 190.523438 L 297.074219 190.523438 L 297.074219 192.042969 L 302.019531 192.042969 Z M 277.707031 196.984375 L 279.226562 196.984375 L 279.226562 192.042969 L 284.171875 192.042969 L 284.171875 190.523438 L 279.226562 190.523438 L 279.226562 185.578125 L 277.707031 185.578125 L 277.707031 190.523438 L 272.761719 190.523438 L 272.761719 192.042969 L 277.707031 192.042969 Z M 277.707031 196.984375 "/></g></svg>